<svg width="200" height="200" viewBox="0 0 200 200" stroke="#ff2c9c" fill="#ff2c9c"
    xmlns="http://www.w3.org/2000/svg">
    <!-- Background pattern using React elliptical orbits -->
    <g fill="none" stroke-width="7" opacity="0.8">
        <ellipse cx="100" cy="100" rx="55" ry="85" transform="rotate(30 100 100)" />
        <ellipse cx="100" cy="100" rx="55" ry="85" transform="rotate(90 100 100)" />
        <ellipse cx="100" cy="100" rx="55" ry="85" transform="rotate(150 100 100)" />
    </g>
    <!-- Central Polkadot network structure -->
    <g>
        <circle cx="100" cy="100" r="12" />
        <circle cx="70" cy="100" r="8" />
        <circle cx="130" cy="100" r="8" />
        <circle cx="85" cy="85" r="8" />
        <circle cx="115" cy="85" r="8" />
        <circle cx="85" cy="115" r="8" />
        <circle cx="115" cy="115" r="8" />
    </g>
    <!-- Connecting lines for Polkadot network -->
    <g stroke-width="4">
        <line x1="100" y1="100" x2="70" y2="100" />
        <line x1="100" y1="100" x2="130" y2="100" />
        <line x1="100" y1="100" x2="85" y2="85" />
        <line x1="100" y1="100" x2="115" y2="85" />
        <line x1="100" y1="100" x2="85" y2="115" />
        <line x1="100" y1="100" x2="115" y2="115" />
    </g>
</svg>
  