<svg width="600" height="315" viewBox="0 0 600 315" xmlns="http://www.w3.org/2000/svg">
    <!-- Background -->
    <rect width="600" height="315" fill="#f7f7f7" />

    <!-- Logo -->
    <svg x="50" y="80" width="150" height="150" viewBox="0 0 200 200">
        <!-- Background pattern using React elliptical orbits -->
        <g fill="none" stroke="#E6007A" stroke-width="6" opacity="0.6">
            <ellipse cx="100" cy="100" rx="55" ry="85" transform="rotate(30 100 100)" />
            <ellipse cx="100" cy="100" rx="55" ry="85" transform="rotate(90 100 100)" />
            <ellipse cx="100" cy="100" rx="55" ry="85" transform="rotate(150 100 100)" />
        </g>
        <!-- Central Polkadot network structure -->
        <g fill="#E6007A">
            <circle cx="100" cy="100" r="12" />
            <circle cx="70" cy="100" r="8" />
            <circle cx="130" cy="100" r="8" />
            <circle cx="85" cy="85" r="8" />
            <circle cx="115" cy="85" r="8" />
            <circle cx="85" cy="115" r="8" />
            <circle cx="115" cy="115" r="8" />
        </g>
        <!-- Connecting lines for Polkadot network -->
        <g stroke="#E6007A" stroke-width="4">
            <line x1="100" y1="100" x2="70" y2="100" />
            <line x1="100" y1="100" x2="130" y2="100" />
            <line x1="100" y1="100" x2="85" y2="85" />
            <line x1="100" y1="100" x2="115" y2="85" />
            <line x1="100" y1="100" x2="85" y2="115" />
            <line x1="100" y1="100" x2="115" y2="115" />
        </g>
    </svg>

    <!-- Title -->
    <text x="230" y="135" font-family="Arial, Helvetica, sans-serif" font-size="36" fill="#E6007A"
        font-weight="bold">Reactive DOT</text>

    <!-- Tag line -->
    <text x="230" y="175" font-family="Arial, Helvetica, sans-serif" font-size="22" fill="#333"
        font-weight="bold">
        A reactive library for building
    </text>
    <text x="230" y="205" font-family="Arial, Helvetica, sans-serif" font-size="22" fill="#333"
        font-weight="bold">
        Substrate front-ends
    </text>
</svg>
  